<mxfile host="app.diagrams.net" agent="Mozilla/5.0 (Windows NT 10.0; Win64; x64) AppleWebKit/537.36 (KHTML, like Gecko) Chrome/140.0.0.0 Safari/537.36" version="28.2.5">
  <diagram name="Страница — 1" id="gsN2Di2x2inD3MckW5hK">
    <mxGraphModel dx="1106" dy="605" grid="1" gridSize="10" guides="1" tooltips="1" connect="1" arrows="1" fold="1" page="1" pageScale="1" pageWidth="827" pageHeight="1169" math="0" shadow="0">
      <root>
        <mxCell id="0" />
        <mxCell id="1" parent="0" />
        <mxCell id="qu35hR4FP9vDF9_wr6oE-17" style="edgeStyle=orthogonalEdgeStyle;rounded=0;orthogonalLoop=1;jettySize=auto;html=1;" edge="1" parent="1" source="qu35hR4FP9vDF9_wr6oE-1" target="qu35hR4FP9vDF9_wr6oE-2">
          <mxGeometry relative="1" as="geometry" />
        </mxCell>
        <mxCell id="qu35hR4FP9vDF9_wr6oE-1" value="Начало" style="rounded=1;whiteSpace=wrap;html=1;" vertex="1" parent="1">
          <mxGeometry x="354" y="10" width="120" height="60" as="geometry" />
        </mxCell>
        <mxCell id="qu35hR4FP9vDF9_wr6oE-16" style="edgeStyle=orthogonalEdgeStyle;rounded=0;orthogonalLoop=1;jettySize=auto;html=1;" edge="1" parent="1" source="qu35hR4FP9vDF9_wr6oE-2" target="qu35hR4FP9vDF9_wr6oE-3">
          <mxGeometry relative="1" as="geometry" />
        </mxCell>
        <mxCell id="qu35hR4FP9vDF9_wr6oE-2" value="Ввести тип груза" style="rounded=1;whiteSpace=wrap;html=1;" vertex="1" parent="1">
          <mxGeometry x="354" y="90" width="120" height="60" as="geometry" />
        </mxCell>
        <mxCell id="qu35hR4FP9vDF9_wr6oE-15" style="edgeStyle=orthogonalEdgeStyle;rounded=0;orthogonalLoop=1;jettySize=auto;html=1;" edge="1" parent="1" source="qu35hR4FP9vDF9_wr6oE-3" target="qu35hR4FP9vDF9_wr6oE-4">
          <mxGeometry relative="1" as="geometry" />
        </mxCell>
        <mxCell id="qu35hR4FP9vDF9_wr6oE-3" value="Ввести место доставки" style="rounded=1;whiteSpace=wrap;html=1;" vertex="1" parent="1">
          <mxGeometry x="354" y="170" width="120" height="60" as="geometry" />
        </mxCell>
        <mxCell id="qu35hR4FP9vDF9_wr6oE-8" style="edgeStyle=orthogonalEdgeStyle;rounded=0;orthogonalLoop=1;jettySize=auto;html=1;entryX=0.5;entryY=0;entryDx=0;entryDy=0;" edge="1" parent="1" source="qu35hR4FP9vDF9_wr6oE-4" target="qu35hR4FP9vDF9_wr6oE-7">
          <mxGeometry relative="1" as="geometry" />
        </mxCell>
        <mxCell id="qu35hR4FP9vDF9_wr6oE-9" style="edgeStyle=orthogonalEdgeStyle;rounded=0;orthogonalLoop=1;jettySize=auto;html=1;entryX=0.5;entryY=0;entryDx=0;entryDy=0;" edge="1" parent="1" source="qu35hR4FP9vDF9_wr6oE-4" target="qu35hR4FP9vDF9_wr6oE-5">
          <mxGeometry relative="1" as="geometry" />
        </mxCell>
        <mxCell id="qu35hR4FP9vDF9_wr6oE-10" style="edgeStyle=orthogonalEdgeStyle;rounded=0;orthogonalLoop=1;jettySize=auto;html=1;entryX=0.5;entryY=0;entryDx=0;entryDy=0;" edge="1" parent="1" source="qu35hR4FP9vDF9_wr6oE-4" target="qu35hR4FP9vDF9_wr6oE-6">
          <mxGeometry relative="1" as="geometry" />
        </mxCell>
        <mxCell id="qu35hR4FP9vDF9_wr6oE-4" value="Выбор доставки (тариф)" style="rounded=1;whiteSpace=wrap;html=1;" vertex="1" parent="1">
          <mxGeometry x="354" y="250" width="120" height="60" as="geometry" />
        </mxCell>
        <mxCell id="qu35hR4FP9vDF9_wr6oE-13" style="edgeStyle=orthogonalEdgeStyle;rounded=0;orthogonalLoop=1;jettySize=auto;html=1;entryX=0;entryY=0.5;entryDx=0;entryDy=0;" edge="1" parent="1" source="qu35hR4FP9vDF9_wr6oE-5" target="qu35hR4FP9vDF9_wr6oE-11">
          <mxGeometry relative="1" as="geometry">
            <Array as="points">
              <mxPoint x="250" y="440" />
            </Array>
          </mxGeometry>
        </mxCell>
        <mxCell id="qu35hR4FP9vDF9_wr6oE-5" value="Быстрый" style="rounded=1;whiteSpace=wrap;html=1;" vertex="1" parent="1">
          <mxGeometry x="190" y="330" width="120" height="60" as="geometry" />
        </mxCell>
        <mxCell id="qu35hR4FP9vDF9_wr6oE-12" style="edgeStyle=orthogonalEdgeStyle;rounded=0;orthogonalLoop=1;jettySize=auto;html=1;entryX=0.5;entryY=0;entryDx=0;entryDy=0;" edge="1" parent="1" source="qu35hR4FP9vDF9_wr6oE-6" target="qu35hR4FP9vDF9_wr6oE-11">
          <mxGeometry relative="1" as="geometry" />
        </mxCell>
        <mxCell id="qu35hR4FP9vDF9_wr6oE-6" value="Стандарт" style="rounded=1;whiteSpace=wrap;html=1;" vertex="1" parent="1">
          <mxGeometry x="354" y="330" width="120" height="60" as="geometry" />
        </mxCell>
        <mxCell id="qu35hR4FP9vDF9_wr6oE-14" style="edgeStyle=orthogonalEdgeStyle;rounded=0;orthogonalLoop=1;jettySize=auto;html=1;entryX=1;entryY=0.5;entryDx=0;entryDy=0;" edge="1" parent="1" source="qu35hR4FP9vDF9_wr6oE-7" target="qu35hR4FP9vDF9_wr6oE-11">
          <mxGeometry relative="1" as="geometry">
            <Array as="points">
              <mxPoint x="580" y="440" />
            </Array>
          </mxGeometry>
        </mxCell>
        <mxCell id="qu35hR4FP9vDF9_wr6oE-7" value="Эконом" style="rounded=1;whiteSpace=wrap;html=1;" vertex="1" parent="1">
          <mxGeometry x="520" y="330" width="120" height="60" as="geometry" />
        </mxCell>
        <mxCell id="qu35hR4FP9vDF9_wr6oE-20" style="edgeStyle=orthogonalEdgeStyle;rounded=0;orthogonalLoop=1;jettySize=auto;html=1;" edge="1" parent="1" source="qu35hR4FP9vDF9_wr6oE-11" target="qu35hR4FP9vDF9_wr6oE-19">
          <mxGeometry relative="1" as="geometry" />
        </mxCell>
        <mxCell id="qu35hR4FP9vDF9_wr6oE-11" value="Проверка выбранного тарифа&amp;nbsp;" style="rounded=1;whiteSpace=wrap;html=1;" vertex="1" parent="1">
          <mxGeometry x="354" y="410" width="120" height="60" as="geometry" />
        </mxCell>
        <mxCell id="qu35hR4FP9vDF9_wr6oE-24" style="edgeStyle=orthogonalEdgeStyle;rounded=0;orthogonalLoop=1;jettySize=auto;html=1;entryX=0.5;entryY=0;entryDx=0;entryDy=0;" edge="1" parent="1" source="qu35hR4FP9vDF9_wr6oE-19" target="qu35hR4FP9vDF9_wr6oE-22">
          <mxGeometry relative="1" as="geometry" />
        </mxCell>
        <mxCell id="qu35hR4FP9vDF9_wr6oE-25" style="edgeStyle=orthogonalEdgeStyle;rounded=0;orthogonalLoop=1;jettySize=auto;html=1;entryX=0.5;entryY=0;entryDx=0;entryDy=0;" edge="1" parent="1" source="qu35hR4FP9vDF9_wr6oE-19" target="qu35hR4FP9vDF9_wr6oE-21">
          <mxGeometry relative="1" as="geometry" />
        </mxCell>
        <mxCell id="qu35hR4FP9vDF9_wr6oE-26" style="edgeStyle=orthogonalEdgeStyle;rounded=0;orthogonalLoop=1;jettySize=auto;html=1;" edge="1" parent="1" source="qu35hR4FP9vDF9_wr6oE-19" target="qu35hR4FP9vDF9_wr6oE-23">
          <mxGeometry relative="1" as="geometry" />
        </mxCell>
        <mxCell id="qu35hR4FP9vDF9_wr6oE-19" value="Вывод стоимости" style="rounded=1;whiteSpace=wrap;html=1;" vertex="1" parent="1">
          <mxGeometry x="354" y="490" width="120" height="60" as="geometry" />
        </mxCell>
        <mxCell id="qu35hR4FP9vDF9_wr6oE-29" style="edgeStyle=orthogonalEdgeStyle;rounded=0;orthogonalLoop=1;jettySize=auto;html=1;entryX=0;entryY=0.5;entryDx=0;entryDy=0;" edge="1" parent="1" source="qu35hR4FP9vDF9_wr6oE-21" target="qu35hR4FP9vDF9_wr6oE-27">
          <mxGeometry relative="1" as="geometry">
            <Array as="points">
              <mxPoint x="250" y="690" />
            </Array>
          </mxGeometry>
        </mxCell>
        <mxCell id="qu35hR4FP9vDF9_wr6oE-21" value="Быстрый 3000 тенге" style="rounded=1;whiteSpace=wrap;html=1;" vertex="1" parent="1">
          <mxGeometry x="190" y="580" width="120" height="60" as="geometry" />
        </mxCell>
        <mxCell id="qu35hR4FP9vDF9_wr6oE-28" style="edgeStyle=orthogonalEdgeStyle;rounded=0;orthogonalLoop=1;jettySize=auto;html=1;" edge="1" parent="1" source="qu35hR4FP9vDF9_wr6oE-22" target="qu35hR4FP9vDF9_wr6oE-27">
          <mxGeometry relative="1" as="geometry" />
        </mxCell>
        <mxCell id="qu35hR4FP9vDF9_wr6oE-22" value="Стандарт 999 тенге" style="rounded=1;whiteSpace=wrap;html=1;" vertex="1" parent="1">
          <mxGeometry x="354" y="580" width="120" height="60" as="geometry" />
        </mxCell>
        <mxCell id="qu35hR4FP9vDF9_wr6oE-30" style="edgeStyle=orthogonalEdgeStyle;rounded=0;orthogonalLoop=1;jettySize=auto;html=1;exitX=0.5;exitY=1;exitDx=0;exitDy=0;entryX=1;entryY=0.5;entryDx=0;entryDy=0;" edge="1" parent="1" source="qu35hR4FP9vDF9_wr6oE-23" target="qu35hR4FP9vDF9_wr6oE-27">
          <mxGeometry relative="1" as="geometry" />
        </mxCell>
        <mxCell id="qu35hR4FP9vDF9_wr6oE-23" value="Эконом бесплатно" style="rounded=1;whiteSpace=wrap;html=1;" vertex="1" parent="1">
          <mxGeometry x="520" y="585" width="120" height="60" as="geometry" />
        </mxCell>
        <mxCell id="qu35hR4FP9vDF9_wr6oE-27" value="Конец" style="rounded=1;whiteSpace=wrap;html=1;" vertex="1" parent="1">
          <mxGeometry x="354" y="660" width="120" height="60" as="geometry" />
        </mxCell>
      </root>
    </mxGraphModel>
  </diagram>
</mxfile>
